<svg xmlns="http://www.w3.org/2000/svg" class="at-icon at-icon-print" role="img" aria-labelledby="at-svg-print-6" style="fill: #ffffff;" viewBox="0 0 32 32" xmlns:xlink="http://www.w3.org/1999/xlink" version="1.1"><TITLE id="at-svg-print-6">Print</TITLE><g><path d="M 24.67 10.62 h -2.86 V 7.49 H 10.82 v 3.12 H 7.95 c -0.5 0 -0.9 0.4 -0.9 0.9 v 7.66 h 3.77 v 1.31 L 15 24.66 h 6.81 v -5.44 h 3.77 v -7.7 c -0.01 -0.5 -0.41 -0.9 -0.91 -0.9 Z M 11.88 8.56 h 8.86 v 2.06 h -8.86 V 8.56 Z m 10.98 9.18 h -1.05 v -2.1 h -1.06 v 7.96 H 16.4 c -1.58 0 -0.82 -3.74 -0.82 -3.74 s -3.65 0.89 -3.69 -0.78 v -3.43 h -1.06 v 2.06 H 9.77 v -3.58 h 13.09 v 3.61 Z m 0.75 -4.91 c -0.4 0 -0.72 -0.32 -0.72 -0.72 s 0.32 -0.72 0.72 -0.72 c 0.4 0 0.72 0.32 0.72 0.72 s -0.32 0.72 -0.72 0.72 Z m -4.12 2.96 h -6.1 v 1.06 h 6.1 v -1.06 Z m -6.11 3.15 h 6.1 v -1.06 h -6.1 v 1.06 Z" /></g></svg>